# xmcd
#
# Track frame offsets:
#	150
#	18009
#	42229
#	55842
#	72212
#	97196
#	113121
#	127800
#	144614
#	162768
#	191063
#	211390
#	227092
#
# Disc length: 3198 seconds
#
# Revision: 1
# Processed by: cddbd v1.4PL0 Copyright (c) Steve Scherf et al.
# Submitted via: EasyCDDAExtractor 5.1.0
#
DISCID=b00c7c0d
DTITLE=Aretha Franklin - 30 Greatest Hits - CD 2
DYEAR=1900
DGENRE=Soul
TTITLE0=Call Me
TTITLE1=Spirit In The Dark
TTITLE2=Don't Play That Song
TTITLE3=You're All I Need to Get By
TTITLE4=Bridge over troubled water
TTITLE5=Spanish Harlem
TTITLE6=Rock Steady
TTITLE7=Oh Me Oh My (I'm A Fool For You Baby)
TTITLE8=Day Dreaming
TTITLE9=Wholy Holy
TTITLE10=Angel
TTITLE11=Until You Come Back To Me
TTITLE12=I'm In Love
EXTD=
EXTT0=
EXTT1=
EXTT2=
EXTT3=
EXTT4=
EXTT5=
EXTT6=
EXTT7=
EXTT8=
EXTT9=
EXTT10=
EXTT11=
EXTT12=
PLAYORDER=
